<?xml version="1.0" standalone="no"?>
<!DOCTYPE svg PUBLIC "-//W3C//DTD SVG 20010904//EN"
 "http://www.w3.org/TR/2001/REC-SVG-20010904/DTD/svg10.dtd">
<svg version="1.0" xmlns="http://www.w3.org/2000/svg"
 width="160.000000pt" height="66.000000pt" viewBox="0 0 160.000000 66.000000"
 preserveAspectRatio="xMidYMid meet">

<g transform="translate(0.000000,66.000000) scale(0.100000,-0.100000)"
fill="#000000" stroke="none">
<path d="M1180 643 c-24 -9 -80 -65 -98 -98 -8 -16 -23 -55 -33 -85 -14 -47
-20 -55 -44 -58 -49 -6 -75 7 -91 43 -16 38 -10 79 14 108 20 23 8 33 -23 19
-39 -18 -85 -98 -85 -147 0 -66 24 -80 125 -79 75 2 82 0 78 -16 -4 -13 -15
-18 -40 -18 -46 0 -82 -27 -111 -83 -42 -79 -17 -195 47 -217 36 -13 75 -5 97
19 16 18 18 18 47 -7 25 -21 37 -24 66 -19 46 9 87 30 94 49 9 23 -12 30 -32
12 -24 -22 -37 -20 -55 6 -12 17 -16 49 -16 133 0 157 5 179 45 198 44 21 103
74 121 108 42 83 -21 163 -106 132z m82 -88 c-8 -40 -93 -128 -109 -112 -9 9
15 68 43 104 29 39 72 44 66 8z m-242 -359 c0 -92 -11 -136 -34 -136 -26 0
-38 39 -34 106 3 49 9 69 28 89 13 14 27 25 32 25 4 0 8 -38 8 -84z"/>
<path d="M493 466 c-23 -20 -26 -28 -17 -43 13 -21 36 -27 69 -19 31 8 39 34
20 62 -20 30 -37 30 -72 0z"/>
<path d="M345 440 c-31 -34 -1 -69 49 -56 29 7 40 31 26 57 -14 25 -52 24 -75
-1z"/>
<path d="M1395 366 c-48 -22 -115 -85 -115 -107 0 -15 21 -53 34 -61 18 -12
67 -9 121 7 44 14 51 14 65 0 21 -22 4 -31 -72 -39 -74 -7 -144 -37 -153 -65
-3 -11 0 -33 7 -48 42 -89 200 -56 244 51 14 35 26 47 47 52 36 8 35 24 -3 24
-25 0 -30 4 -30 25 0 14 -10 35 -21 46 -18 18 -30 21 -75 17 -30 -3 -54 -1
-54 3 0 4 20 15 45 24 62 24 70 36 44 69 -11 14 -23 26 -27 26 -4 0 -30 -11
-57 -24z m105 -227 c0 -16 -21 -53 -39 -66 -23 -18 -87 -16 -105 3 -37 36 -12
50 137 73 4 0 7 -4 7 -10z"/>
<path d="M26 357 c-15 -11 -20 -32 -24 -109 -2 -53 -1 -125 3 -162 7 -73 24
-92 69 -80 23 5 24 9 19 54 -7 63 12 142 42 170 22 21 25 21 31 6 4 -10 4 -50
0 -90 -11 -122 20 -165 93 -128 41 20 52 42 22 42 -24 0 -25 4 -10 120 12 99
3 136 -34 146 -34 8 -100 -27 -126 -68 -22 -35 -26 -25 -12 34 14 62 -27 98
-73 65z"/>
<path d="M618 363 c-23 -6 -38 -84 -38 -203 0 -110 9 -145 39 -155 37 -12 55
8 52 58 -3 56 14 116 44 153 28 35 44 26 20 -10 -21 -32 -13 -56 17 -56 73 0
131 127 80 173 -38 35 -78 17 -127 -56 -39 -58 -41 -58 -20 3 19 54 19 56 -5
80 -20 20 -29 22 -62 13z"/>
<path d="M1196 347 c-12 -9 -19 -32 -23 -74 -8 -89 19 -96 51 -13 10 25 24 53
33 62 8 9 12 22 8 27 -9 15 -47 14 -69 -2z"/>
<path d="M420 314 c-74 -32 -110 -86 -110 -164 0 -99 50 -146 147 -138 42 4
60 11 81 31 33 33 22 47 -14 18 -33 -26 -56 -27 -77 -3 -19 21 -22 42 -7 42
16 0 80 61 96 91 23 46 18 94 -12 118 -31 25 -56 26 -104 5z m60 -54 c0 -40
-22 -90 -50 -115 l-23 -20 8 50 c9 66 30 115 49 115 11 0 16 -10 16 -30z"/>
</g>
</svg>
